<?xml version="1.0" encoding="UTF-8"?>
<svg version="1.1" xmlns="http://www.w3.org/2000/svg" width="284" height="177">
<path d="M0 0 C93.72 0 187.44 0 284 0 C284 58.41 284 116.82 284 177 C190.28 177 96.56 177 0 177 C0 118.59 0 60.18 0 0 Z " fill="#00368B" transform="translate(0,0)"/>
<path d="M0 0 C3.60754884 0.21220876 5.54413949 1.3411773 8.25 3.5625 C11.78525734 6.21971957 14.48363929 6.61706895 18.8515625 6.37109375 C21.93612343 5.83830595 24.34424176 4.61936478 27 3 C27.66 2.67 28.32 2.34 29 2 C29 3.32 29 4.64 29 6 C29.66 6 30.32 6 31 6 C35.76611385 6.13617468 38.02736987 8.55573255 41.25390625 11.72265625 C46.08464455 18.02314938 47.68047676 23.54480815 47.5 31.4375 C47.48936523 32.27498779 47.47873047 33.11247559 47.46777344 33.9753418 C47.28046684 40.04798755 46.39929793 44.85959826 43 50 C42.443125 50.969375 41.88625 51.93875 41.3125 52.9375 C36.53852737 59.25978808 31.13565017 64.94915684 25.375 70.375 C17.87496274 77.80947749 13.37609533 86.77147534 11 97 C10.67 97 10.34 97 10 97 C9.19556845 86.18121646 17.32832189 75.89371816 24 68 C25.00812032 66.67279572 26.01052181 65.3411602 27 64 C26.24074219 64.08121094 25.48148438 64.16242188 24.69921875 64.24609375 C22 64 22 64 20.26953125 62.28515625 C19.54830078 61.18494141 19.54830078 61.18494141 18.8125 60.0625 C16.88837056 56.99415787 16.88837056 56.99415787 14 55 C13.7525 55.556875 13.505 56.11375 13.25 56.6875 C11.78393985 59.39971127 9.97010529 61.63587365 8 64 C6.68 63.67 5.36 63.34 4 63 C3.25 61.375 3.25 61.375 3 59 C3.928125 57.700625 3.928125 57.700625 4.875 56.375 C7.37750058 52.40044025 7.54786457 49.67225388 7.7265625 45.07421875 C7.81679687 44.38972656 7.90703125 43.70523438 8 43 C8.99 42.505 8.99 42.505 10 42 C9.81969238 41.41822998 9.63938477 40.83645996 9.45361328 40.23706055 C8.72128225 36.62546245 9.95581332 33.30654889 10.875 29.8125 C12.3663043 23.86310735 13.55386235 18.13439262 14 12 C13.26394531 11.82984375 12.52789062 11.6596875 11.76953125 11.484375 C2.07732865 9.07732865 2.07732865 9.07732865 -2 5 C-1.125 1.125 -1.125 1.125 0 0 Z " fill="#053888" transform="translate(124,55)"/>
<path d="M0 0 C0.99 0 1.98 0 3 0 C3.27714844 1.25296875 3.55429688 2.5059375 3.83984375 3.796875 C4.20570096 5.44792292 4.57158793 7.09896424 4.9375 8.75 C5.11990234 9.575 5.30230469 10.4 5.49023438 11.25 C5.66748047 12.04921875 5.84472656 12.8484375 6.02734375 13.671875 C6.27085571 14.77160645 6.27085571 14.77160645 6.51928711 15.89355469 C6.84394888 17.31619653 7.19177907 18.73371984 7.56079102 20.14550781 C8 22 8 22 8 24 C8.33 24.33 8.66 24.66 9 25 C9.24427138 27.4834257 9.38359759 29.96567293 9.5234375 32.45703125 C10.07018621 35.37451819 11.17487675 36.71012388 13 39 C13.1875 41.75 13.1875 41.75 13 44 C10.525 44.495 10.525 44.495 8 45 C7.59007812 44.43410156 7.18015625 43.86820313 6.7578125 43.28515625 C6.21898437 42.55167969 5.68015625 41.81820312 5.125 41.0625 C4.59132812 40.33160156 4.05765625 39.60070312 3.5078125 38.84765625 C2.11987896 36.88901765 2.11987896 36.88901765 0 36 C-0.2475 36.556875 -0.495 37.11375 -0.75 37.6875 C-2.21606015 40.39971127 -4.02989471 42.63587365 -6 45 C-7.32 44.67 -8.64 44.34 -10 44 C-10.75 42.375 -10.75 42.375 -11 40 C-10.38125 39.13375 -9.7625 38.2675 -9.125 37.375 C-6.62249942 33.40044025 -6.45213543 30.67225388 -6.2734375 26.07421875 C-6.18320313 25.38972656 -6.09296875 24.70523438 -6 24 C-5.34 23.67 -4.68 23.34 -4 23 C-4.18030762 22.42330566 -4.36061523 21.84661133 -4.54638672 21.25244141 C-5.0409166 18.7968264 -4.85018624 17.37573502 -4.2578125 14.9609375 C-4.07863281 14.21585938 -3.89945313 13.47078125 -3.71484375 12.703125 C-3.52019531 11.93484375 -3.32554687 11.1665625 -3.125 10.375 C-2.93808594 9.59898438 -2.75117188 8.82296875 -2.55859375 8.0234375 C-1.16477997 2.32955995 -1.16477997 2.32955995 0 0 Z " fill="#AEAE62" transform="translate(138,74)"/>
<path d="M0 0 C4.77100834 0.14457601 7.03202741 2.56030404 10.25390625 5.72265625 C15.08464455 12.02314938 16.68047676 17.54480815 16.5 25.4375 C16.48936523 26.27498779 16.47873047 27.11247559 16.46777344 27.9753418 C16.28046684 34.04798755 15.39929793 38.85959826 12 44 C11.443125 44.969375 10.88625 45.93875 10.3125 46.9375 C5.53852737 53.25978808 0.13565017 58.94915684 -5.625 64.375 C-13.12503726 71.80947749 -17.62390467 80.77147534 -20 91 C-20.33 91 -20.66 91 -21 91 C-21.72804668 81.20851504 -14.9127407 71.39816247 -8.8828125 64.0703125 C-6.83104358 61.81421804 -4.6856706 59.68889817 -2.5 57.5625 C6.34209979 48.87128929 11.81166894 40.04880471 12.5 27.5 C12.26201941 20.47957268 9.77498448 14.86218363 4.88671875 9.8203125 C2.97505121 8.12935258 1.041759 6.53005265 -1 5 C-0.67 3.35 -0.34 1.7 0 0 Z " fill="#F1D847" transform="translate(155,61)"/>
<path d="M0 0 C0 3.16542604 -0.47563174 4.22706099 -1.9375 6.9375 C-5.24912083 13.09782693 -5.81674848 19.06222637 -5 26 C-2.11981501 34.46129036 3.03174227 39.62448689 10 45 C9.67 46.65 9.34 48.3 9 50 C5.63241445 50.08418964 3.56337804 49.46516463 0.9609375 47.31640625 C-5.99326195 40.01058998 -9.12134216 32.50743194 -9.5 22.4375 C-9.18755016 13.36568038 -6.19768433 6.54200012 0 0 Z " fill="#EDD547" transform="translate(116,64)"/>
<path d="M0 0 C1.20596483 15.60097366 1.20596483 15.60097366 -3.5 21.5 C-4.63023434 22.70199525 -5.78478768 23.88398869 -7 25 C-8.32 24.67 -9.64 24.34 -11 24 C-11.75 22.375 -11.75 22.375 -12 20 C-11.38125 19.13375 -10.7625 18.2675 -10.125 17.375 C-7.93688379 13.8997566 -7.76325534 12.79223459 -7.625 8.875 C-7.4765625 6.28125 -7.4765625 6.28125 -7 4 C-2.42857143 0 -2.42857143 0 0 0 Z " fill="#F4D945" transform="translate(139,94)"/>
<path d="M0 0 C4.83769634 2.63874346 4.83769634 2.63874346 7 5 C7.62724393 7.60579863 7.75086875 9.92154457 7.734375 12.59765625 C8.05902133 15.53379585 9.17935736 16.73251556 11 19 C11.1875 21.75 11.1875 21.75 11 24 C9.35 24.33 7.7 24.66 6 25 C2.80478773 22.1946797 0.31712298 19.28470214 -0.28417969 14.95263672 C-0.53566211 9.95845381 -0.30603262 4.98719818 0 0 Z " fill="#F0D645" transform="translate(140,94)"/>
<path d="M0 0 C0.33 0 0.66 0 1 0 C1.144375 1.093125 1.28875 2.18625 1.4375 3.3125 C1.88288104 6.93122987 1.88288104 6.93122987 3 10 C-0.70521395 21.9339713 -9.74905643 31.01492324 -18.625 39.375 C-26.12503726 46.80947749 -30.62390467 55.77147534 -33 66 C-33.33 66 -33.66 66 -34 66 C-34.72804668 56.20851504 -27.9127407 46.39816247 -21.8828125 39.0703125 C-19.83104358 36.81421804 -17.6856706 34.68889817 -15.5 32.5625 C-5.75093113 22.9797975 -1.25239639 13.52588104 0 0 Z " fill="#C5C064" transform="translate(168,86)"/>
<path d="M0 0 C1.65 0 3.3 0 5 0 C6.3125 3.125 6.3125 3.125 7 7 C5.64051603 9.49690083 4.066728 10.98247981 2 13 C3.65 13 5.3 13 7 13 C4.59549822 15.40450178 3.91766058 15.29609139 0.625 15.3125 C-2.51541545 15.25687267 -3.79645416 15.11914878 -6.5625 13.5 C-7.036875 13.005 -7.51125 12.51 -8 12 C-7.49396008 9.83125748 -7.00016187 8.00032373 -6 6 C-5.360625 5.71125 -4.72125 5.4225 -4.0625 5.125 C-1.57998766 3.77090236 -1.03128603 2.57821507 0 0 Z " fill="#0F3B7E" transform="translate(137,41)"/>
<path d="M0 0 C3.62082232 0.10345207 5.54571651 1.35389725 8.25 3.5625 C12.38476139 6.69516857 15.98808069 6.58082056 21 6 C23.89086974 5.57549372 23.89086974 5.57549372 26 5 C22.96060287 8.51930194 19.72382234 9.79802627 15.1328125 10.3359375 C8.55164382 10.42140722 4.2251813 10.18014504 -1 6 C-2.0625 3.875 -2.0625 3.875 -2 2 C-1.34 1.34 -0.68 0.68 0 0 Z " fill="#EDD546" transform="translate(124,55)"/>
<path d="M0 0 C0 3.16542604 -0.47563174 4.22706099 -1.9375 6.9375 C-5.78347063 14.09183245 -6.25133235 22.3637209 -4 30.1875 C-3.505 31.5796875 -3.505 31.5796875 -3 33 C-3.99 32.67 -4.98 32.34 -6 32 C-6.33 32.99 -6.66 33.98 -7 35 C-10.36382121 26.01186972 -10.20828866 16.92493171 -6.22265625 8.16796875 C-4.46817573 5.05698891 -2.45455569 2.59091989 0 0 Z " fill="#E0CF54" transform="translate(116,64)"/>
<path d="M0 0 C2.87420646 0.2973317 3.89981229 0.89658043 5.9375 3 C8.30854261 5.29919283 9.77231982 5.64136887 13 6 C10.59549822 8.40450178 9.91766058 8.29609139 6.625 8.3125 C3.48458455 8.25687267 2.20354584 8.11914878 -0.5625 6.5 C-1.036875 6.005 -1.51125 5.51 -2 5 C-1.125 1.125 -1.125 1.125 0 0 Z " fill="#E9D54B" transform="translate(131,48)"/>
<path d="M0 0 C0.99 0 1.98 0 3 0 C5.27678571 8.03571429 5.27678571 8.03571429 4 12 C3.34 11.34 2.68 10.68 2 10 C0.68 9.67 -0.64 9.34 -2 9 C-1.34 6.03 -0.68 3.06 0 0 Z " fill="#78866A" transform="translate(138,74)"/>
<path d="M0 0 C1.2065625 0.0309375 1.2065625 0.0309375 2.4375 0.0625 C2.4375 1.7125 2.4375 3.3625 2.4375 5.0625 C0.7875 5.3925 -0.8625 5.7225 -2.5625 6.0625 C-2.94468767 4.40635343 -3.27645102 2.73792976 -3.5625 1.0625 C-2.5625 0.0625 -2.5625 0.0625 0 0 Z " fill="#ECD649" transform="translate(139.5625,40.9375)"/>
<path d="M0 0 C0.33 0.66 0.66 1.32 1 2 C1.99 2.33 2.98 2.66 4 3 C3.67 8.94 3.34 14.88 3 21 C2.67 21 2.34 21 2 21 C2 15.72 2 10.44 2 5 C1.34 4.67 0.68 4.34 0 4 C0 2.68 0 1.36 0 0 Z " fill="#787D48" transform="translate(137,89)"/>
<path d="M0 0 C0.66 0 1.32 0 2 0 C2.05389087 1.95803507 2.09274217 3.91648909 2.125 5.875 C2.14820313 6.96554688 2.17140625 8.05609375 2.1953125 9.1796875 C2 12 2 12 0 14 C-0.19393875 11.85473901 -0.37998676 9.70876323 -0.5625 7.5625 C-0.71912109 5.77005859 -0.71912109 5.77005859 -0.87890625 3.94140625 C-0.91886719 2.97074219 -0.95882812 2.00007813 -1 1 C-0.67 0.67 -0.34 0.34 0 0 Z " fill="#FEDF3F" transform="translate(169,81)"/>
<path d="M0 0 C0.33 0 0.66 0 1 0 C1.144375 1.093125 1.28875 2.18625 1.4375 3.3125 C1.88288104 6.93122987 1.88288104 6.93122987 3 10 C2.0625 12.6875 2.0625 12.6875 1 15 C0.34 15 -0.32 15 -1 15 C-0.67 10.05 -0.34 5.1 0 0 Z " fill="#E2D154" transform="translate(168,86)"/>
<path d="M0 0 C0.66 0.33 1.32 0.66 2 1 C1.01 2.485 1.01 2.485 0 4 C0.66 4.33 1.32 4.66 2 5 C1.67 5.99 1.34 6.98 1 8 C-0.32 8 -1.64 8 -3 8 C-2.74438677 5.6568787 -2.40729228 3.32156597 -2 1 C-1.34 0.67 -0.68 0.34 0 0 Z " fill="#B3B05F" transform="translate(136,88)"/>
<path d="M0 0 C0 3.13604096 -0.45408323 4.23568381 -1.875 6.9375 C-2.22304687 7.60652344 -2.57109375 8.27554688 -2.9296875 8.96484375 C-3.45949219 9.97224609 -3.45949219 9.97224609 -4 11 C-4.66943531 12.33194542 -5.33691996 13.66487938 -6 15 C-6.94995077 11.92084924 -7.25768217 10.52901638 -5.8203125 7.578125 C-5.26085937 6.80984375 -4.70140625 6.0415625 -4.125 5.25 C-3.29355469 4.08210938 -3.29355469 4.08210938 -2.4453125 2.890625 C-1 1 -1 1 0 0 Z " fill="#B5B56D" transform="translate(116,64)"/>
<path d="M0 0 C-1.5830577 4.2742558 -4.50568404 6.26531794 -8 9 C-8 6 -8 6 -6.7578125 4.39453125 C-5.94957031 3.61142578 -5.94957031 3.61142578 -5.125 2.8125 C-4.59132812 2.28269531 -4.05765625 1.75289063 -3.5078125 1.20703125 C-2 0 -2 0 0 0 Z " fill="#C0BB5F" transform="translate(154,119)"/>
<path d="M0 0 C-1.26691507 0.67408308 -2.53870749 1.33900497 -3.8125 2 C-4.52019531 2.37125 -5.22789062 2.7425 -5.95703125 3.125 C-8 4 -8 4 -11 4 C-11.33 3.01 -11.66 2.02 -12 1 C-10.37681021 0.63762737 -8.7513642 0.28534843 -7.125 -0.0625 C-6.22007812 -0.25972656 -5.31515625 -0.45695312 -4.3828125 -0.66015625 C-2 -1 -2 -1 0 0 Z " fill="#D4CA59" transform="translate(150,61)"/>
<path d="M0 0 C0.99 0.33 1.98 0.66 3 1 C4.1875 3.5625 4.1875 3.5625 5 6 C4.01 6 3.02 6 2 6 C2 5.34 2 4.68 2 4 C1.34 4 0.68 4 0 4 C0 4.66 0 5.32 0 6 C-0.66 6 -1.32 6 -2 6 C-1.49396008 3.83125748 -1.00016187 2.00032373 0 0 Z " fill="#CEC764" transform="translate(138,81)"/>
<path d="M0 0 C1.32 0.66 2.64 1.32 4 2 C4 3.32 4 4.64 4 6 C2.68 5.67 1.36 5.34 0 5 C-0.5625 3.0625 -0.5625 3.0625 -1 1 C-0.67 0.67 -0.34 0.34 0 0 Z " fill="#EAD64A" transform="translate(128,113)"/>
<path d="M0 0 C1.32 0.33 2.64 0.66 4 1 C3.67 2.98 3.34 4.96 3 7 C2.67 6.34 2.34 5.68 2 5 C1.34 5 0.68 5 0 5 C0 3.35 0 1.7 0 0 Z " fill="#F6DA3E" transform="translate(110,96)"/>
<path d="M0 0 C2.97 0.33 5.94 0.66 9 1 C7 3 7 3 3.375 3.125 C2.26125 3.08375 1.1475 3.0425 0 3 C0 2.01 0 1.02 0 0 Z " fill="#FADF45" transform="translate(135,53)"/>
<path d="M0 0 C0.33 1.32 0.66 2.64 1 4 C1.66 4 2.32 4 3 4 C3 3.34 3 2.68 3 2 C3.66 2 4.32 2 5 2 C5 2.66 5 3.32 5 4 C5.66 4.33 6.32 4.66 7 5 C4.69 5.33 2.38 5.66 0 6 C0 4.02 0 2.04 0 0 Z " fill="#566A65" transform="translate(135,83)"/>
</svg>
